<svg width="30" height="30" viewBox="0 0 30 30" fill="none" xmlns="http://www.w3.org/2000/svg">
<g clip-path="url(#clip0_83_532)">
<path d="M25.8486 20.8802C24.0363 19.3301 22.1971 18.3912 20.407 19.9389L19.3381 20.8743C18.5561 21.5533 17.102 24.726 11.4802 18.2589C5.85951 11.8 9.20429 10.7943 9.98751 10.1211L11.0622 9.18456C12.8429 7.63334 12.1709 5.68056 10.8866 3.67041L10.1116 2.45285C8.82146 0.44739 7.41658 -0.869683 5.63122 0.679195L4.66654 1.52212C3.87746 2.09695 1.6718 3.96544 1.13678 7.5151C0.492877 11.7742 2.5241 16.6515 7.17775 22.0029C11.8256 27.3567 16.3762 30.0458 20.6868 29.999C24.2693 29.9604 26.4328 28.038 27.1095 27.3391L28.0777 26.495C29.8583 24.9473 28.752 23.3715 26.9385 21.8179L25.8486 20.8802Z" fill="#6A9631"/>
</g>
<defs>
<clipPath id="clip0_83_532">
<rect width="30" height="30" fill="white"/>
</clipPath>
</defs>
</svg>
