<svg width="180" height="60" viewBox="0 0 180 60" fill="none" xmlns="http://www.w3.org/2000/svg">
<path d="M32.1725 35.824C32.3688 35.5029 32.7882 35.4016 33.1083 35.597C33.4295 35.7934 33.5307 36.2127 33.3354 36.5339C32.6542 37.6467 31.7971 38.9836 30.7538 40.4349C29.7105 41.8863 28.4903 43.44 27.0921 44.9752C24.6977 47.6029 20.9408 50.6426 16.9427 52.8571C13.639 54.6868 10.1532 55.9613 7.09803 55.9951C6.72266 55.9981 6.41582 55.6954 6.41274 55.32C6.40968 54.9446 6.71243 54.6378 7.0878 54.6347C9.89235 54.604 13.1552 53.3992 16.2809 51.6675C20.1461 49.5268 23.7751 46.5923 26.0836 44.0578C27.4552 42.5532 28.6406 41.0435 29.6492 39.6402C30.6577 38.2369 31.4984 36.9235 32.1725 35.824Z" fill="white"/>
<path d="M30.9388 40.1702C30.6934 40.4545 30.2628 40.4853 29.9784 40.2398C29.6941 39.9943 29.6634 39.5637 29.9089 39.2793C38.5312 29.2956 44.8021 31.911 51.3646 34.648C54.7286 36.0513 58.1745 37.4883 62.0162 37.0792C62.3905 37.0394 62.726 37.3104 62.7659 37.6848C62.7833 37.8525 62.7393 38.0121 62.6514 38.1409C51.4771 54.505 42.9887 50.1723 36.0079 46.6078C32.7339 44.9365 29.8199 43.4484 27.2905 44.6808C26.9519 44.8455 26.5428 44.7044 26.3781 44.3658C26.2135 44.0273 26.3546 43.6181 26.6932 43.4535C29.8342 41.9233 33.0336 43.5558 36.6268 45.3906C42.9601 48.6238 50.626 52.534 60.7243 38.5132C57.1342 38.5306 53.9543 37.2051 50.8419 35.9071C44.7439 33.3644 38.9158 30.9331 30.9388 40.1702Z" fill="white"/>
<path d="M34.6762 30.4576C35.4955 30.9363 36.0437 31.7024 36.2677 32.5544C36.4918 33.4064 36.3905 34.3433 35.9128 35.1626C35.4342 35.9818 34.6681 36.5301 33.8161 36.7541C33.0223 36.9627 32.155 36.8891 31.3786 36.4923H31.3674L31.2079 36.3992C30.3886 35.9205 29.8404 35.1544 29.6164 34.3023C29.4077 33.5087 29.4814 32.6413 29.8782 31.865V31.8537L29.9713 31.6942C30.45 30.8749 31.216 30.3267 32.068 30.1027C32.92 29.8787 33.858 29.9789 34.6773 30.4576H34.6762ZM34.9493 32.9011C34.8143 32.3877 34.483 31.9263 33.9879 31.6369C33.4918 31.3474 32.9262 31.2861 32.4138 31.4201C31.9034 31.554 31.4421 31.8834 31.1527 32.3754L31.1485 32.3815C30.8591 32.8776 30.7977 33.4422 30.9317 33.9546C31.0667 34.467 31.3981 34.9293 31.8931 35.2188C32.3882 35.5083 32.9538 35.5696 33.4663 35.4357C33.9787 35.3007 34.441 34.9703 34.7305 34.4742C35.0199 33.9781 35.0813 33.4125 34.9473 32.9001L34.9493 32.9011Z" fill="white"/>
<path d="M39.6806 27.9783C40.4764 28.4438 41.0103 29.1884 41.2271 30.0168C41.4296 30.787 41.359 31.6277 40.9755 32.3816V32.3928L40.8824 32.5524C40.417 33.3491 39.6724 33.8821 38.8439 34.0989C38.0155 34.3168 37.1041 34.2185 36.3084 33.7542C35.5116 33.2888 34.9787 32.5432 34.7619 31.7157C34.544 30.8873 34.6422 29.9759 35.1076 29.1802L35.1157 29.1648L35.1178 29.1607L35.1208 29.1556C35.5862 28.3721 36.3247 27.8474 37.145 27.6326C37.9735 27.4148 38.8849 27.5129 39.6806 27.9773V27.9783ZM39.9097 30.3635C39.7808 29.8747 39.4648 29.4338 38.9923 29.1577V29.1566L38.9749 29.1474H38.9738L38.9728 29.1464C38.5043 28.8805 37.9735 28.8242 37.4917 28.9511C37.0028 29.0799 36.562 29.396 36.2858 29.8685C36.0097 30.3421 35.9514 30.8811 36.0793 31.37C36.2071 31.8569 36.52 32.2946 36.9886 32.5718L36.9967 32.5769C37.4692 32.8531 38.0083 32.9114 38.4972 32.7836C38.9861 32.6546 39.427 32.3386 39.7031 31.8661C39.9793 31.3925 40.0375 30.8535 39.9097 30.3646V30.3635Z" fill="white"/>
<path d="M62.5001 38.2985C57.4893 42.1095 52.813 41.0816 47.794 39.978C42.011 38.7066 35.7462 37.3289 28.0546 43.8708L27.174 42.8306C35.3801 35.8519 41.9844 37.3044 48.0814 38.6442C52.7864 39.6783 57.1712 40.6428 61.6778 37.2153L62.4991 38.2985H62.5001Z" fill="white"/>
<path d="M39.9835 37.5434C41.3295 37.5854 44.396 37.43 46.9919 36.6905C48.5588 36.2435 49.9263 35.5961 50.54 34.6714L51.6764 35.4232C50.854 36.6618 49.2093 37.4759 47.3651 38.0017C44.6219 38.7831 41.3735 38.9468 39.9467 38.9028L39.9835 37.5425V37.5434Z" fill="white"/>
<path d="M34.1967 38.5961C37.2458 37.4249 40.9698 39.9125 44.6571 42.3754C48.4477 44.9079 52.1973 47.4128 54.4393 45.3661L55.3568 46.3746C52.3293 49.1383 48.1368 46.3378 43.8992 43.5066C40.5024 41.237 37.074 38.9469 34.6815 39.8654L34.1957 38.5961H34.1967Z" fill="white"/>
<path d="M19.4391 49.7848C19.6253 49.4841 19.8022 49.1701 19.9709 48.8448C22.2518 44.4365 22.2027 38.946 20.8802 34.1173C19.5618 29.3008 16.9976 25.1738 14.2329 23.4636C14.0918 23.3766 13.9445 23.2928 13.79 23.213L14.414 22.002C14.5858 22.091 14.7648 22.1933 14.9479 22.3058C17.9918 24.1898 20.7872 28.6257 22.1925 33.7593C23.5948 38.8806 23.6336 44.73 21.182 49.4688C21.004 49.8114 20.8097 50.1561 20.5969 50.4987L19.4391 49.7838V49.7848Z" fill="white"/>
<path d="M22.0399 45.1381C22.3877 45.2792 22.5544 45.676 22.4132 46.0238C22.2721 46.3716 21.8752 46.5383 21.5275 46.3972C11.688 42.3784 12.8785 37.5068 14.1315 32.3784C14.8915 29.268 15.6769 26.0522 13.5444 22.9971C13.3296 22.6892 13.4043 22.2647 13.7122 22.0499C13.9075 21.9139 14.1489 21.8935 14.3545 21.9763C18.7894 23.7529 21.8957 25.7965 24.0017 27.9526C26.3951 30.4023 27.5048 32.9972 27.8025 35.5164C28.0991 38.0233 27.5866 40.4422 26.7367 42.5636C25.5022 45.6454 23.5414 48.1093 22.3447 49.2784C22.0747 49.5403 21.6441 49.5341 21.3812 49.2651C21.1194 48.9951 21.1245 48.5645 21.3945 48.3016C22.5022 47.2195 24.3198 44.9325 25.4715 42.0563C26.2458 40.1242 26.7132 37.9323 26.4472 35.6759C26.1823 33.4318 25.1841 31.1111 23.0249 28.9018C21.3373 27.1743 18.9418 25.5132 15.6422 24.0066C16.8542 26.9554 16.1444 29.8663 15.4519 32.6975C14.3412 37.2439 13.2856 41.5623 22.0369 45.137L22.0399 45.1381Z" fill="white"/>
<path d="M16.0266 30.1271C15.8343 32.1063 17.1967 33.216 18.7483 34.4802C20.482 35.8928 22.4223 37.473 23.1403 40.5323L21.8117 40.8422C21.199 38.233 19.451 36.8092 17.8891 35.5368C16.0358 34.0271 14.4085 32.7016 14.6714 29.9993L16.0266 30.1271Z" fill="white"/>
<path d="M24.7909 29.3059C24.0554 30.0392 23.5666 31.0334 23.2505 32.0787C22.8025 33.5577 22.7043 35.1185 22.7432 36.2243L21.3828 36.2723C21.3399 35.047 21.4483 33.3184 21.9434 31.6839C22.3177 30.4494 22.913 29.2558 23.8304 28.3403L24.7909 29.3059Z" fill="white"/>
<path d="M45.1162 3.93994C45.109 3.56456 45.4077 3.25363 45.7831 3.24646C46.1585 3.23931 46.4693 3.53797 46.4765 3.91334C46.5767 8.23578 45.6389 12.3036 43.9093 16.3805V16.3825C42.194 20.4247 39.7034 24.4669 36.6779 28.7709C36.4611 29.0788 36.0366 29.1525 35.7287 28.9366C35.4209 28.7198 35.3472 28.2953 35.5631 27.9874C38.5385 23.754 40.984 19.7895 42.6563 15.8496C44.3132 11.9455 45.2113 8.0578 45.1162 3.93994Z" fill="white"/>
<path d="M46.4518 3.74043C46.4896 3.86419 46.6318 4.31218 46.7801 4.78063C47.2813 6.36703 47.8674 8.21935 48.3001 10.1964C49.8322 17.1987 49.4221 25.4897 36.823 28.2451C36.5059 28.3137 36.1929 28.15 36.061 27.8677C31.1995 18.8679 34.538 15.5049 39.1734 10.8378C41.1413 8.85558 43.3588 6.62375 45.2152 3.57064C45.4116 3.24947 45.8309 3.14821 46.1511 3.34357C46.3035 3.43665 46.4068 3.57985 46.4518 3.7394V3.74043ZM46.9653 10.4849C46.5766 8.70925 46.0498 7.00526 45.5803 5.51707C43.8324 8.07925 41.89 10.0349 40.138 11.7982C35.9924 15.9723 32.9864 18.9999 37.0347 26.7968C47.9983 24.1825 48.3389 16.764 46.9642 10.4849H46.9653Z" fill="white"/>
<path d="M40.4956 11.4391C37.7268 14.0709 38.3743 16.1318 39.0646 18.3268C39.7162 20.399 40.3994 22.5756 38.9675 25.3924L37.7513 24.7736C38.9317 22.4518 38.3333 20.5463 37.7636 18.7318C36.9433 16.1206 36.1732 13.6699 39.5576 10.4521L40.4966 11.4391H40.4956Z" fill="white"/>
<path d="M48.7726 13.0337C48.8083 15.4926 47.0338 16.5522 45.1303 17.6875C43.728 18.5242 42.2439 19.4089 41.6506 20.9514L40.3813 20.4655C41.1454 18.4792 42.835 17.4707 44.4317 16.5195C45.9864 15.5918 47.4367 14.7264 47.4122 13.05L48.7726 13.0337Z" fill="white"/>
<path d="M35.1937 25.0855C35.9455 25.553 36.4498 26.2751 36.6604 27.0749C36.8783 27.9034 36.7801 28.8148 36.3157 29.6105L36.2707 29.6872L36.2666 29.6913C35.7992 30.4431 35.0771 30.9473 34.2772 31.157C33.4488 31.3749 32.5375 31.2767 31.7417 30.8113L31.665 30.7663L31.6609 30.7622C30.9091 30.2947 30.4048 29.5726 30.1942 28.7728C29.9917 28.0027 30.0622 27.1619 30.4458 26.4081V26.3968L30.5389 26.2372C31.0042 25.4404 31.7488 24.9076 32.5774 24.6907C33.3475 24.4882 34.1883 24.5588 34.9421 24.9424H35.0515L35.1937 25.0846V25.0855ZM35.342 27.4216C35.2141 26.9328 34.8981 26.493 34.4266 26.2168H34.4245C33.952 25.9396 33.413 25.8803 32.9241 26.0092C32.4372 26.137 31.9984 26.451 31.7212 26.9205L31.7171 26.9266C31.441 27.3991 31.3827 27.9392 31.5106 28.4271C31.6394 28.916 31.9555 29.3569 32.428 29.633L32.4341 29.6361C32.9056 29.9092 33.4426 29.9674 33.9285 29.8396C34.4174 29.7107 34.8582 29.3947 35.1344 28.9222L35.1405 28.9109C35.4115 28.4404 35.4678 27.9055 35.341 27.4207L35.342 27.4216Z" fill="white"/>
<path d="M153.878 31.5003V18.8643H156.491L160.84 24.8703C161.542 25.8258 162.341 27.1908 162.341 27.1908V18.8643H165.071V31.5003H162.439L158.227 25.7283C157.388 24.5973 156.608 23.2518 156.608 23.2518V31.5003H153.878Z" fill="white"/>
<path d="M141.327 31.7149C137.427 31.7149 134.638 28.8094 134.638 25.1824C134.638 21.5749 137.407 18.6694 141.307 18.6694C143.082 18.6694 144.642 19.2934 145.792 20.2879L144.096 22.1404C143.218 21.3604 142.321 21.1459 141.366 21.1459C139.162 21.1459 137.485 22.9399 137.485 25.1824C137.485 27.4444 139.123 29.2384 141.366 29.2384C142.575 29.2384 143.589 28.6924 144.271 27.9709V26.1184H142.126V24.1294H146.767V29.0434C145.656 30.7009 143.608 31.7149 141.327 31.7149Z" fill="white"/>
<path d="M125.171 31.5003V18.8643H127.901V31.5003H125.171Z" fill="white"/>
<path d="M113.192 31.7149C110.17 31.7149 108.746 30.5644 108.044 29.9989L109.039 27.8929C110.053 28.6339 111.262 29.2774 113.192 29.2774C114.245 29.2774 115.532 28.7899 115.532 27.7954C115.532 26.8204 114.401 26.5669 113.29 26.2939C110.93 25.7479 108.493 24.9484 108.493 22.3159C108.493 19.8784 110.774 18.6694 113.192 18.6694C115.103 18.6694 116.546 19.1764 117.814 20.0149L116.819 22.1209C115.805 21.4579 114.479 21.1069 113.192 21.1069C112.529 21.1069 111.281 21.3604 111.281 22.3159C111.281 23.1349 112.198 23.4274 113.446 23.7199C115.688 24.2464 118.379 25.0849 118.379 27.7954C118.379 30.5254 115.727 31.7149 113.192 31.7149Z" fill="white"/>
<path d="M91.9883 31.5003V18.8643H101.875V21.2043H94.7183V23.7783H101.504V26.0988H94.7183V29.1603H102.148V31.5003H91.9883Z" fill="white"/>
<path d="M73.4257 31.5003V18.8643H78.4957C82.6492 18.8643 85.2622 21.7308 85.2622 25.1823C85.2622 28.6338 82.6492 31.5003 78.4957 31.5003H73.4257ZM76.1557 29.1603H78.3787C80.7967 29.1603 82.3957 27.4833 82.3957 25.1823C82.3957 22.9008 80.7967 21.2043 78.3787 21.2043H76.1557V29.1603Z" fill="white"/>
<path d="M141.602 48.0004V40.2244H147.686V41.6644H143.282V43.2484H147.458V44.6764H143.282V46.5604H147.854V48.0004H141.602Z" fill="white"/>
<path d="M131.422 48.0004V40.2244H137.506V41.6644H133.102V43.2484H137.278V44.6764H133.102V46.5604H137.674V48.0004H131.422Z" fill="white"/>
<path d="M121.827 48.0004V40.2244H127.647V41.6644H123.507V43.2484H127.035V44.6764H123.507V48.0004H121.827Z" fill="white"/>
<path d="M112.232 48.0004V40.2244H118.052V41.6644H113.912V43.2484H117.44V44.6764H113.912V48.0004H112.232Z" fill="white"/>
<path d="M103.981 48.1327C101.581 48.1327 99.8647 46.3447 99.8647 44.1127C99.8647 41.8927 101.581 40.1047 103.981 40.1047C106.381 40.1047 108.097 41.8927 108.097 44.1127C108.097 46.3447 106.381 48.1327 103.981 48.1327ZM103.993 46.6087C105.349 46.6087 106.345 45.5047 106.345 44.1127C106.345 42.7327 105.349 41.6287 103.993 41.6287C102.637 41.6287 101.617 42.7327 101.617 44.1127C101.617 45.5047 102.625 46.6087 103.993 46.6087Z" fill="white"/>
<path d="M93.4605 48.1325C91.0605 48.1325 89.3565 46.3445 89.3565 44.1005C89.3565 41.8925 91.0605 40.1045 93.4605 40.1045C94.5285 40.1045 95.4885 40.4645 96.1845 41.0885L95.1525 42.2165C94.6245 41.7605 94.0845 41.6285 93.5565 41.6285C92.1405 41.6285 91.1085 42.7325 91.1085 44.1005C91.1085 45.4925 92.1165 46.6085 93.4965 46.6085C94.2165 46.6085 94.8765 46.3325 95.3565 45.8045L96.4005 46.9805C95.6565 47.7005 94.6485 48.1325 93.4605 48.1325Z" fill="white"/>
</svg>
